# xmcd CD database file
#
# Track frame offsets:
#	150
#	19589
#	21605
#	47642
#	68037
#	70137
#	89997
#	95815
#	106814
#	125781
#	127197
#	140701
#	152342
#	155277
#	177029
#	181684
#
# Disc length: 2801 seconds
#
# Revision: 0
# Processed by: cddbd v1.5.2PL0 Copyright (c) Steve Scherf et al.
# Submitted via: CDex 1.51
#
DISCID=e00aef10
DTITLE=R. Mendoza - Canciones De La Presita
DYEAR=2005
DGENRE=Jazz
TTITLE0=Agua
TTITLE1=Presita 1
TTITLE2=Partes
TTITLE3=Chito (w/ Tremelo)
TTITLE4=Presita 2
TTITLE5=Chevy
TTITLE6=Presita 3
TTITLE7=100 Acres
TTITLE8=Quintaros
TTITLE9=Presita 4
TTITLE10=Ruana
TTITLE11=Moshi Mucho
TTITLE12=Presita 5
TTITLE13=Yapapi
TTITLE14=Presita 6... al fin por fin
TTITLE15=Ella Dijo [Mini Maloso Mix]
EXTD=YEAR: 2005
EXTT0=
EXTT1=
EXTT2=
EXTT3=
EXTT4=
EXTT5=
EXTT6=
EXTT7=
EXTT8=
EXTT9=
EXTT10=
EXTT11=
EXTT12=
EXTT13=
EXTT14=
EXTT15=
PLAYORDER=
